<?xml version="1.0" encoding="UTF-8" standalone="no"?>
<!-- Created with Inkscape (http://www.inkscape.org/) -->

<svg
   width="188.30379mm"
   height="246.91034mm"
   viewBox="0 0 188.30379 246.91034"
   version="1.1"
   id="svg1"
   xmlns:inkscape="http://www.inkscape.org/namespaces/inkscape"
   xmlns:sodipodi="http://sodipodi.sourceforge.net/DTD/sodipodi-0.dtd"
   xmlns="http://www.w3.org/2000/svg"
   xmlns:svg="http://www.w3.org/2000/svg">
  <sodipodi:namedview
     id="namedview1"
     pagecolor="#ffffff"
     bordercolor="#666666"
     borderopacity="1.0"
     inkscape:showpageshadow="2"
     inkscape:pageopacity="0.0"
     inkscape:pagecheckerboard="0"
     inkscape:deskcolor="#d1d1d1"
     inkscape:document-units="mm" />
  <defs
     id="defs1" />
  <g
     inkscape:label="Layer 1"
     inkscape:groupmode="layer"
     id="layer1"
     transform="translate(-8.5144589,-29.905688)">
    <path
       style="fill:#000000;fill-opacity:0.720721;stroke-width:0.264583"
       id="path1"
       d="m 155.02747,102.95363 c -5.26455,4.35091 -10.65791,8.55578 -15.94082,12.88989 -6.40074,4.75557 -12.2595,10.06362 -17.65608,15.91912 -4.87609,5.24895 -7.44089,11.27745 -9.66029,17.95511 -1.70299,4.90475 -2.3098,10.04489 -2.64447,15.19466 -0.15827,3.12811 -0.15276,6.26001 -0.14882,9.39094 -0.28726,0.91691 0.53462,2.83372 -0.1852,3.55229 0.99308,-0.61855 2.03599,-1.16347 2.97923,-1.85565 0.0378,-0.0277 -0.52242,0.26687 -1.95862,0.2743 -2.46769,0.0127 -4.78034,-0.68824 -7.15137,-1.29314 -7.771976,-2.60653 -15.137896,-6.28307 -22.251592,-10.32455 -4.019828,-2.57873 -8.525563,-4.60931 -12.195969,-7.70896 -1.345139,-1.39944 -1.421246,-3.33372 -3.756144,1.11057 -0.225078,0.42842 0.769247,0.58742 1.153872,0.88112 4.046865,3.39085 7.354205,7.52221 10.406118,11.80116 3.65099,5.21871 5.92428,11.17905 7.615716,17.27455 0.872398,3.86218 1.841717,8.10532 0.01506,11.87386 -0.328179,0.67706 -0.823741,1.25932 -1.235612,1.88898 -0.931418,0.80272 -2.691863,2.53046 -3.989679,2.77845 -0.349369,0.0668 0.91321,-0.87379 0.559245,-0.90878 -0.998313,-0.0987 -1.946661,0.49142 -2.93306,0.67413 -2.388806,0.44246 -3.933685,0.52368 -6.35,0.74026 -4.89254,0.31607 -9.699725,-0.49587 -14.46358,-1.49194 -2.795529,-0.81742 -6.646973,-1.12484 -7.589432,2.74229 -0.512337,5.29349 1.081913,10.58835 2.653456,15.58505 2.279218,6.80037 4.921173,13.46837 8.570703,19.65119 3.685299,5.5297 7.884708,10.65256 13.465476,14.31952 4.04495,2.7283 8.685144,3.74114 13.443985,4.3023 3.349125,0.4066 6.625759,0.38587 9.868873,-0.56244 5.481504,-2.03951 9.973984,-5.89399 14.820054,-9.03936 0.8818,-0.52679 2.96824,-1.76701 3.85063,-2.31847 0.48892,-0.30555 -1.62728,0.33412 -1.48188,0.89203 0.1433,0.54989 1.00207,-0.53624 1.50631,-0.79826 1.30533,-0.67827 0.96915,-0.508 2.22838,-1.04894 0.65884,-0.13188 2.48099,-1.3592 2.25908,0.0244 -0.40033,2.23633 -1.63545,4.18541 -2.70346,6.15098 -1.76545,2.88976 -3.27357,5.92161 -5.00163,8.83348 -0.75039,1.2867 -1.55836,2.57317 -2.76046,3.49197 -0.31719,0.24243 -1.33762,0.87003 -1.01882,0.62968 2.34296,-1.76628 3.30516,-1.70347 1.19172,-1.45849 -2.54218,-0.19918 -4.70174,-1.6943 -6.89358,-2.86181 -0.74225,-0.11424 -2.966529,-1.55212 -3.708648,-1.35252 -0.08087,0.0217 0.115287,0.12149 0.172932,0.18224 -0.996328,0.66761 -2.104816,1.19251 -2.988987,2.00282 -0.24692,0.2263 0.658878,-0.12153 0.990145,-0.17093 0.586097,-0.0874 1.175625,-0.15081 1.761534,-0.23949 2.759154,-0.41758 5.488504,-1.01491 8.236424,-1.50131 7.11168,-1.50798 14.31193,-2.51379 21.47424,-3.7313 4.04025,-0.62641 8.06114,-1.38707 11.94823,-2.67207 2.26693,-0.78992 4.22032,-2.17303 6.3017,-3.35671 0.85159,-0.4843 -3.35986,2.01598 -2.53318,1.49029 4.75041,-3.02077 2.77481,-1.3312 4.58258,-2.9308 1.48115,-0.85079 1.94561,-2.32397 2.14198,-3.91953 0.52,-5.24467 -0.22193,-10.4651 -0.79313,-15.66979 -0.88193,-8.89942 -1.36841,-17.91247 -0.34889,-26.82787 0.23482,-2.05359 0.63553,-4.0848 0.9533,-6.1272 1.76505,-9.50983 4.5484,-18.7907 8.23745,-27.72416 0.60897,-2.48286 3.17701,-5.09019 3.20538,-7.69533 -0.26218,-0.31114 -0.49545,-0.64916 -0.78655,-0.93343 -1.83474,-1.79168 -4.22949,-3.09442 -6.3124,-4.54709 -4.38709,-3.05967 -3.96928,-2.82083 -8.49577,-6.26595 -12.64839,-9.85517 -24.20051,-20.9534 -34.9141,-32.85874 -7.78961,-8.681 -14.420705,-18.232411 -20.129162,-28.377338 -1.953585,-3.711141 -3.961096,-7.462467 -4.569053,-11.653369 0.431742,-4.830603 4.183878,-8.852825 6.923077,-12.604884 5.547085,-7.642511 11.225678,-15.191013 16.619218,-22.94351 1.56659,-2.944326 5.24952,-5.815172 6.23561,-9.056847 -0.14672,-1.737299 -4.68611,-1.763918 -5.84321,-1.868392 -6.07516,-1.026559 -12.139025,-1.020596 -18.254606,-0.504928 -6.885948,1.056074 -13.263819,3.956135 -18.211771,8.95132 -4.080719,4.152852 -5.328716,9.875543 -7.19306,15.188541 -2.29743,6.872097 -5.288378,13.46704 -8.865616,19.760292 -1.522161,2.292654 -2.726883,5.080259 -5.057418,6.685015 -1.796325,0.945102 1.600391,-0.83035 2.447086,-1.517126 0.231349,-0.18765 -0.588679,0.09562 -0.885568,0.119954 -1.477788,0.121129 -2.987289,0.06301 -4.467037,0.06455 C 44.369449,79.66067 39.252347,79.344194 34.129993,78.882467 32.712815,79.072649 28.16753,77.645243 27.03242,78.6385 c -1.07932,0.944435 -2.06559,1.990204 -3.098386,2.985307 3.159741,4.646972 6.930204,8.864356 10.287846,13.37896 4.913884,6.433363 7.871764,13.804443 10.335765,21.438083 1.760455,5.44138 2.479696,10.98876 1.649225,16.64061 -0.634032,2.93305 -2.784796,4.67019 -5.233522,6.13593 0.590081,-0.40316 1.798436,-0.49537 1.770247,-1.20947 -0.02535,-0.6417 -1.189609,0.48459 -1.78985,0.71291 -2.913206,1.10815 -5.88432,1.91038 -8.879351,2.75652 -2.553877,1.02565 -5.366186,1.1984 -7.955505,2.05871 -1.284273,0.79401 -2.611911,1.52183 -3.852819,2.38204 -0.743105,0.51513 -1.258579,5.27151 -1.368494,5.93495 -0.785906,4.92305 -1.26303,9.88885 -1.570838,14.86274 -0.110851,2.06874 -0.210219,4.14048 -0.217089,6.21269 -0.0782,1.22739 1.017255,1.80958 1.963766,2.31445 1.315955,0.54782 2.748937,0.7087 4.159116,0.8088 1.029177,0.0504 2.059522,0.0513 3.089546,0.0424 5.849729,-1.86799 10.492709,-6.45668 14.931629,-10.49332 8.576439,-7.93704 16.900474,-16.11608 25.883877,-23.59928 4.619662,-4.01637 9.550495,-7.6102 14.69672,-10.91343 0.134451,-0.0863 -0.534318,0.34475 -0.387156,0.28256 0.831291,-0.35134 1.632791,-0.76936 2.449187,-1.15404 2.856169,-1.17316 5.786186,-2.17944 8.891129,-1.73519 2.037784,0.54746 3.734898,1.82623 5.658316,2.63678 1.758931,0.64749 3.615841,0.81698 5.472001,0.90228 2.13223,0.0775 4.19331,-0.77556 6.13852,-1.55955 3.17849,-1.19484 6.5254,-1.91518 9.85035,-2.57984 4.30124,-1.08119 8.02252,0.57159 11.75909,2.53624 3.87746,2.08251 7.09961,5.04401 10.15826,8.16077 2.91657,3.58596 6.265,6.78561 9.29473,10.26853 1.7152,1.59416 2.95912,3.82926 4.99814,5.06028 4.91457,-0.78526 5.67887,-6.04421 7.07075,-9.81013 1.29296,-3.67851 2.40935,-7.43679 4.08334,-10.96786 1.03168,-2.56874 2.11096,-5.11422 3.21382,-7.6557 1.47849,-3.28747 3.44029,-6.29837 5.53422,-9.21841 0.91921,-1.42966 2.44744,-2.45081 2.94747,-4.10682 0.33202,-2.05873 0.24312,-4.16195 0.23721,-6.24025 -0.53689,-4.92864 -1.40295,-9.79834 -1.88316,-14.737381 -0.87242,-8.56833 -0.34736,-17.158144 0.37325,-25.711128 0.39667,-5.721435 1.34132,-11.387304 2.28721,-17.038751 0.30367,-2.143268 1.44192,-3.482978 -2.8782,0.402383 -0.1583,0.142365 0.15836,0.396063 0.21652,0.600858 0.23484,0.826919 0.40217,1.671535 0.60625,2.506573 0.80572,3.323934 1.21041,6.718763 1.43371,10.125543 0.57081,4.768205 -2.44667,7.947652 -5.72634,10.930991 -1.61016,1.163171 -3.3889,2.560473 -5.20521,3.396051 -0.13374,0.06153 0.26903,-0.457539 0.12583,-0.423352 -1.29168,0.308369 -2.49402,0.919123 -3.7683,1.292942 -3.42529,1.004832 -5.18375,1.231892 -8.7042,1.878563 -10.3411,1.427371 -20.80592,1.519965 -31.22012,2.004367 -12.26773,0.347726 -24.30042,2.533777 -36.127188,5.678284 -7.321815,2.132165 -14.024957,5.504277 -20.120504,10.105122 -2.513499,1.897158 -4.126606,4.035515 -6.139794,6.395335 -4.716764,5.62712 -6.407221,12.40636 -7.243014,19.51633 -0.410434,7.2849 0.956318,11.51649 5.272392,17.33558 5.957094,7.56519 14.909768,10.01043 23.87722,12.18742 7.261068,1.47894 15.114092,2.00464 22.161478,-0.78346 1.184,-0.46842 2.2822,-1.12988 3.4233,-1.69482 6.14216,-3.18089 11.18696,-7.17839 14.01674,-13.52931 1.63353,-4.91707 -0.2771,-6.44357 -4.43752,-8.7732 -5.52346,-2.31166 -11.62599,-2.50413 -17.5293,-2.75577 -3.395215,-0.0369 -7.069915,-0.32973 -10.329399,0.89613 -2.102639,0.79079 -5.697395,3.64306 -6.823583,4.43538 -3.483023,6.23095 -3.125213,13.40361 -1.980266,20.20265 1.799434,7.55973 5.829951,14.27854 9.678506,20.94104 2.313471,4.03043 4.95274,7.87467 6.853676,12.1271 0.647496,1.46113 1.007206,3.05475 0.682796,4.63328 -0.383996,1.64669 -1.649157,2.81799 -2.532836,4.19212 -1.020101,0.97513 -1.759064,2.01223 -2.175518,3.35873 -0.278845,1.49935 -0.246677,3.03519 -0.246796,4.55406 7.94e-4,1.86899 0.01458,3.73795 0.01685,5.60692 0.398733,1.92622 1.788015,3.54821 2.918241,5.12717 1.107474,1.4975 2.215419,2.97879 3.515519,4.31644 1.17772,1.28865 2.78447,1.83781 4.45105,2.15578 2.3213,0.25419 4.6622,0.24708 6.99467,0.26186 2.26657,-0.0892 1.83458,0.73519 1.25101,2.41426 -0.90405,1.85937 -1.68216,3.76618 -2.78737,5.51762 -0.73914,0.86794 -1.05481,1.8029 -1.20064,2.91102 -1.08676,1.54887 -3.00295,2.47106 -4.61204,3.39436 -0.50131,0.30059 -1.8289,1.3876 -1.50392,0.90175 0.35489,-0.53056 1.81679,-0.44756 1.60224,-1.04874 -0.20887,-0.58526 -1.14308,0.48804 -1.71941,0.72043 -1.78008,0.71777 -3.5714,1.31831 -5.41154,1.85908 -2.252167,0.59938 -4.564824,0.93981 -6.885357,1.12593 -0.766046,-0.073 -0.72254,-0.69272 -0.733267,-1.31329 -0.678153,-1.38851 -2.349542,-0.52866 -3.3798,-0.0891 -2.176365,1.1293 -4.423365,2.13843 -6.760806,2.88185 -5.314457,1.65675 -10.849789,2.45788 -16.329302,3.36405 -5.062088,0.81158 -10.175618,1.21653 -15.294441,1.42307 -2.973805,-0.15499 -5.894683,-0.71483 -8.865076,-0.93407 -5.51162,-0.54186 -10.894454,0.2214 -16.258989,1.41271 -5.374166,1.33596 -10.693948,4.03874 -14.037679,8.54462 -1.6803291,2.87208 -1.990865,5.41923 -1.1364246,8.59649 1.4468376,4.60222 4.6050426,8.01807 7.9576876,11.32448 2.540629,2.43811 5.373954,4.33967 8.688835,5.50956 1.467424,0.52657 3.009416,0.65492 4.554178,0.67437 1.18401,-0.003 2.367774,-0.0297 3.551743,-0.0397 1.918382,-0.57222 4.840409,-1.2445 5.586507,-3.14661 0.277643,-1.07207 0.205756,-2.22081 0.211368,-3.3228 0.146447,-1.06915 -0.309004,-2.34976 0.167346,-3.34073 0.830302,-1.12702 2.602405,-2.05529 -2.566154,1.31029 -0.08326,0.0542 0.193723,-0.0615 0.292891,-0.0554 0.443688,0.0275 0.537403,0.14571 0.914617,0.36822 1.724298,1.19457 3.475667,2.30839 5.427671,3.08721 3.16135,0.90729 6.395923,1.56255 9.656513,1.99044 2.427693,0.30673 4.867336,0.48866 7.312253,0.56851 1.106363,0.0381 2.213496,0.023 3.320224,0.0159 2.411487,0.0753 4.761167,0.88212 7.104658,1.41743 4.372718,0.87569 8.851574,0.91659 13.293317,1.00036 5.935028,0.12795 11.857223,-0.52168 17.744547,-1.20102 6.37308,-0.89943 12.73499,-1.86926 19.10845,-2.76609 4.41176,-0.65098 8.86451,-0.87736 13.31745,-0.97972 3.54568,0.0899 7.04348,-0.091 10.55261,-0.57701 2.53455,-0.3729 5.09267,-0.53988 7.6506,-0.63997 1.23253,0.10716 2.2852,-0.4336 3.38234,-0.8912 0.69096,-0.25884 1.42462,-0.35557 2.1572,-0.39282 3.24113,0.12414 3.76091,-1.26593 4.59194,-3.26364 0.75169,-2.18846 1.47987,-4.37924 2.11651,-6.60518 1.42838,-3.51426 1.91538,-7.26262 2.60615,-10.95904 0.90434,-4.57366 1.11807,-9.23304 1.27141,-13.87978 0.29737,-6.43196 -0.3383,-12.84772 -0.66639,-19.26593 -0.22313,-6.36743 -0.95598,-12.70079 -1.37407,-19.05666 -0.14806,-2.80779 -0.30622,-5.6194 -0.29606,-8.43233 -1.17355,0.71314 -2.50391,1.21637 -3.52064,2.13942 -0.11395,0.10344 0.1545,2.28442 0.20208,2.76594 0.30743,3.11179 0.71348,6.18097 1.18973,9.27268 1.43011,8.48077 2.61045,17.00116 3.86152,25.51022 0.68784,3.03528 1.14042,6.17115 2.10576,9.13986 0.79595,1.76676 8.5288,-5.08502 0.94325,0.19582 -0.0576,0.0401 0.29941,-0.0555 1.34353,-0.32554 2.01252,-0.55495 4.08925,-0.74676 6.07122,-1.4079 1.00833,-0.40055 2.03705,-0.76337 3.10218,-0.97823 0.78683,-0.1618 1.40789,-0.11524 2.06322,0.35905 0.46628,0.50241 0.7759,1.15865 1.41623,1.49314 4.9265,0.45571 3.86701,-5.2962 3.85611,-7.8888 0.39944,-7.87873 1.61563,-15.68816 2.42334,-23.53151 0.90255,-8.70513 2.11402,-17.36818 3.38297,-26.02559 0.77174,-5.54184 1.2903,-11.1131 1.66033,-16.69476 0.0156,-1.25446 0.54752,-3.42785 -0.92383,-4.07576 -2.06305,0.24056 -4.04828,1.11635 -5.91897,1.98523 -2.79884,1.29691 -5.81204,2.07791 -8.60948,3.36965 -1.29417,0.9398 -8.49328,3.0058 -5.02221,4.04922 2.30274,0.34445 4.59428,-0.18043 6.85838,-0.55998 1.2047,-0.0674 3.0071,-1.02302 3.6554,0.3759 0.024,1.87924 -0.86653,3.59047 -1.4931,5.32204 -0.4704,1.16756 -0.68265,2.40171 -0.73861,3.6518 -0.47495,1.73236 -0.80903,3.49475 -1.06101,5.27168 -0.27574,1.16689 -0.0712,2.17074 0.58847,3.14988 1.51073,1.12139 0.98219,-0.0462 0.85013,0.42012 0.35447,-0.2362 -1.47829,0.84714 -1.10972,0.63362 2.99301,-1.73396 4.2522,-2.45243 3.03023,-1.75482 -1.83422,0.69172 -3.51862,1.55166 -4.67985,3.07082 5.62901,-3.26693 3.57693,-1.78412 2.00029,-1.60576 -0.63726,0.0257 -1.27539,0.0161 -1.91303,0.0169 -1.08043,-0.003 -2.16086,5e-5 -3.2413,-0.005 -1.16174,8e-5 -2.32346,5.3e-4 -3.4852,0.004 -1.50748,-0.11494 -2.82963,-0.69453 -4.07679,-1.50882 -0.83627,-0.48393 -0.94733,-1.33513 -1.03443,-2.21622 -0.12495,-1.5089 3.09626,-2.99463 -2.22638,0.48425 -0.38154,0.24937 0.8515,-0.32967 1.29069,-0.45164 1.8271,-0.52955 2.67059,0.78478 3.60275,2.12046 0.74898,1.41188 1.71227,2.7043 2.27452,4.21055 0.35425,1.47016 0.40346,2.95743 0.77353,4.43301 0.55159,1.63554 0.73127,3.22382 0.41261,4.90947 -0.22764,1.20158 -0.54444,2.23136 -1.36133,3.15039 -0.39431,0.62225 -0.91416,1.08441 -1.52501,1.52178 6.00691,-3.61557 1.80015,-1.2313 -0.14525,0.67378 -0.0285,0.0279 1.36195,0.1587 1.3991,0.15919 0.36444,0.16365 1.94033,-0.29171 1.48318,-0.0151 -1.46326,0.43945 -0.0744,0.0492 2.71947,-1.69115 0.14055,-0.0876 -0.30403,0.13258 -0.46132,0.18437 -0.41648,0.13713 -0.85661,0.20687 -1.28739,0.28143 -0.70603,0.13212 -1.42169,0.058 -2.12175,0.21042 5.29968,2.95329 -4.83955,1.26577 -4.48667,2.85333 0.0296,0.13301 0.14146,0.23293 0.21218,0.34939 1.50694,0.436 3.21081,0.25997 4.77773,0.26265 1.85788,-0.1354 3.63858,0.11025 5.39236,0.71083 0.1868,0.14359 1.25023,0.28294 0.7083,0.54961 -0.0714,0.0608 -0.29528,0.22973 -0.21433,0.18234 10.03087,-5.87201 -8.84326,5.11403 0.37247,-0.26354 -1.55514,1.49044 -3.88669,2.16479 -5.61969,3.49465 -0.57054,0.43782 -0.9923,1.01056 -1.55945,1.4555 -1.05465,1.24173 1.32561,1.33881 2.07059,1.39279 1.02932,0.0592 2.06069,0.042 3.09102,0.0606 2.80414,-2.27349 4.12176,-2.32334 2.56172,-2.33571 -1.82697,-0.0145 -3.45403,1.65221 -4.79375,2.50468 0.43477,0.91994 1.5397,0.92585 2.43591,1.00792 1.52727,-0.13988 0.18927,0.81574 -0.37708,1.34194 -1.70539,1.81871 -3.36975,3.67301 -4.8835,5.65351 -0.8159,1.0242 -1.46006,2.28361 0.33365,2.22889 1.2994,0.0616 2.38775,-0.85228 3.6584,-0.87225 0.75849,0.10276 -0.0662,0.60918 -0.0278,1.06991 0.73168,0.81596 1.99749,0.65765 3.00725,0.69454 -0.22066,-0.3127 1.3808,0.32922 1.14787,0.0255 -0.11326,-0.14765 -0.70893,0.0208 -0.55251,-0.08 0.93982,-0.60567 1.9134,-1.15725 2.87011,-1.73588 -8.63306,4.95803 -2.6343,1.52848 -1.25124,0.68654 0.20609,-0.12546 -0.4282,0.2225 -0.64351,0.33138 -0.43838,0.22167 -0.88171,0.43302 -1.3261,0.64228 -2.63827,0.9333 -3.86455,1.47879 -3.93886,3.66675 -0.001,0.71931 0.14043,1.27414 -0.40051,1.80357 -0.10122,0.42803 0.20495,0.70775 0.29769,1.09838 0.54347,0.56786 0.80408,1.34054 1.39432,1.85387 3.58737,0.90642 3.81774,-1.79013 4.81313,-3.5846 0.35896,-0.55269 0.1787,-0.29152 0.53765,-0.78565 0,0 -3.60987,1.57293 -3.60987,1.57293 v 0 c -0.34122,0.52259 -0.17087,0.24482 -0.50661,0.836 -0.379,0.88093 -0.61966,1.32179 -0.57845,1.30238 5.59571,-2.63506 3.85241,-2.11691 2.67997,-1.44594 -0.58875,-0.37116 -0.71998,-1.18375 -1.25456,-1.63015 -0.0781,-0.29151 -0.33756,-0.52241 -0.14677,-0.77157 0.38521,-0.63381 0.28423,-1.30631 0.2959,-2.022 0.0196,-0.30146 0.0214,-0.62105 0.1535,-0.90088 0.0352,-0.0746 0.19967,-0.25023 0.12633,-0.2126 -5.96356,3.06071 -4.10437,2.20303 -2.94792,1.67455 2.2071,-1.03077 10.24463,-5.62869 3.2193,-1.68199 0.3008,-0.16697 6.88217,-3.04596 2.80607,-2.94265 -0.88361,-0.0195 -1.79155,-0.0598 -2.65432,-0.16228 0.3153,-0.57423 0.55696,-1.38246 -0.30685,-1.59865 -1.3366,-0.17735 -2.36788,0.79987 -3.69474,0.83373 -0.28869,0.0323 -0.90836,0.48514 -0.84797,0.201 0.13138,-0.61821 0.55553,-1.14234 0.9233,-1.62896 1.54369,-1.95558 3.17055,-3.84009 4.91812,-5.61797 0.68927,-0.7584 1.69369,-2.23236 -0.0341,-2.13049 -0.66197,-0.0416 -1.40705,-0.12659 -2.00799,-0.2859 -8.73883,4.95142 -3.16989,1.55075 -2.44756,1.37236 0.23665,-0.0584 0.52268,0.13285 0.73124,0.007 1.202,-0.72718 2.34544,-1.54704 3.51815,-2.32055 -1.03339,0.0495 -2.06988,0.0226 -3.10377,-0.006 -0.44965,-0.0241 -2.63473,0.17619 -1.61705,-0.57972 1.16205,-1.04204 5.91263,-4.45274 0.5061,-1.02396 13.6722,-7.92336 -2.86226,1.67288 2.58494,-1.52965 3.79056,-2.22855 2.91938,-1.00255 3.89376,-2.46853 0.11365,-0.79618 -0.40049,-0.88693 -1.05704,-1.12918 -1.78856,-0.61663 -3.59499,-0.95328 -5.49721,-0.79403 -1.51153,-0.006 -3.03698,-0.0573 -4.54104,-0.0335 0.0178,0.0594 -0.003,0.15341 0.0534,0.17819 0.10959,0.0478 0.60668,-0.70049 0.7763,-0.61064 -1.0134,0.57205 -2.0268,1.1441 -3.04019,1.71615 0.62908,-0.36719 1.36481,-0.13758 2.07021,-0.27136 2.09835,-0.32176 4.50395,-0.93165 5.7563,-2.83243 -0.002,-1.06719 -1.12064,-0.55342 -1.87739,-0.60526 -0.21327,0.001 -1.06133,-0.12261 -1.26502,-0.003 -9.06477,5.33256 0.24827,0.16802 0.49828,0.0176 0.57761,-0.46628 1.0408,-1.00862 1.48049,-1.60389 0.74148,-0.98667 1.03067,-2.11644 1.24958,-3.32012 0.27899,-1.73106 0.0682,-3.38407 -0.48903,-5.05347 -0.36904,-1.49068 -0.35203,-3.0124 -0.77985,-4.48294 -0.59221,-1.52721 -1.57846,-2.84299 -2.33944,-4.28411 -0.96104,-1.37689 -1.92226,-2.98066 -3.85267,-2.5164 -2.27246,0.46512 -5.83155,1.49985 -5.66822,4.1726 0.12543,0.97393 0.30628,1.96455 1.2193,2.50815 1.30204,0.85204 2.64583,1.48899 4.21166,1.69168 1.1574,0.004 2.31479,0.004 3.47219,0.005 1.07948,-0.003 2.15895,5.3e-4 3.23843,0.005 0.6383,0.005 1.27662,0.0139 1.91495,0.007 1.87777,0.0236 3.2135,-1.21323 4.82121,-2.28257 0.28009,-0.32524 1.29486,-1.01667 0.79545,-0.75084 -3.33971,1.77761 -4.3048,1.77169 -2.834,1.71407 1.42217,-0.74265 3.58095,-1.63915 4.75447,-3.01585 0.34771,-0.57651 -0.75461,-0.60675 -1.0432,-0.76749 -0.64101,-0.89061 -0.70883,-1.80604 -0.48078,-2.87449 0.25047,-1.79081 0.64453,-3.54824 1.05982,-5.30672 0.0883,-1.21362 0.319,-2.40565 0.76946,-3.54214 0.64652,-1.81231 1.59494,-3.63058 1.37106,-5.60585 -0.88814,-1.84564 -2.28035,-0.95001 -3.96382,-0.77977 -2.22605,0.38763 -4.47435,0.9339 -6.74396,0.65309 -1.24296,-0.0854 -2.51336,1.20801 -3.60625,1.83474 -1.61688,0.92722 3.85743,-2.14447 2.36881,-1.21392 2.7513,-1.40178 5.81793,-2.0983 8.62492,-3.38582 1.83527,-0.89465 3.74288,-1.60867 5.71688,-2.11988 1.06352,-0.38525 0.746,3.15247 0.69939,3.53529 -0.26304,5.54912 -0.75878,11.0856 -1.52233,16.58927 -1.24949,8.6561 -2.42524,17.32025 -3.33762,26.01973 -0.83368,7.8814 -2.06216,15.72649 -2.55605,23.6392 -0.0163,1.03817 -0.03,2.6961 -0.0855,3.80311 -0.0172,0.34389 -0.0347,0.68851 -0.0795,1.0299 -0.0272,0.20678 -0.33251,0.68064 -0.13602,0.61072 2.76441,-0.98372 3.86493,-2.7468 3.08808,-1.5414 -0.54321,0.18445 -0.95268,-1.09764 -1.32824,-1.34329 -0.71248,-0.55358 -1.33743,-0.80187 -2.2448,-0.6153 -1.09656,0.11824 -2.15514,0.53826 -3.17284,0.94118 -1.96426,0.72026 -4.02106,0.93653 -6.05105,1.42229 -2.11129,0.65261 -2.60676,0.12735 -5.107,2.37495 -0.58272,0.52384 4.16289,-1.03012 3.16102,-1.76157 -1.09535,-2.87708 -1.48511,-6.01779 -2.24385,-8.98439 -1.36858,-8.48818 -2.5712,-16.99781 -3.88813,-25.49374 -0.44266,-3.10811 -0.82402,-6.18759 -1.05453,-9.3181 -0.0422,-0.57326 -0.10186,-1.14566 -0.12188,-1.72012 -0.0122,-0.35119 0.37425,-1.0944 0.0252,-1.05392 -1.25804,0.14591 -2.33904,0.97194 -3.50857,1.45791 0.32122,2.76907 0.10538,5.59219 0.44499,8.3624 0.46639,6.33957 1.21862,12.65845 1.44138,19.01378 0.31986,6.41931 0.89262,12.84126 0.5841,19.2721 -0.17014,4.63879 -0.41997,9.28835 -1.34034,13.85054 -0.68455,3.69272 -1.22334,7.41973 -2.63693,10.93151 -0.66028,2.22794 -1.41851,4.42037 -2.20364,6.6066 -0.10899,0.29186 -0.17115,0.60904 -0.34103,0.87021 -0.0405,0.0623 -0.23125,0.1842 -0.16524,0.14994 4.31732,-2.24189 4.28197,-1.73159 2.65983,-1.73728 -0.75818,0.0198 -1.50767,0.0855 -2.24471,0.28194 -1.08294,0.45527 -2.12,1.10209 -3.33206,1.02941 -2.57393,0.0959 -5.14901,0.269 -7.70078,0.62799 -3.51058,0.50231 -7.00275,0.76441 -10.5559,0.6354 -4.47807,0.10231 -8.95779,0.30628 -13.39288,0.97986 -6.37595,0.90865 -12.7397,1.887 -19.11718,2.78421 -5.868424,0.68947 -11.774199,1.32945 -17.690809,1.22496 -4.405381,-0.0921 -8.845851,-0.13768 -13.186603,-0.98089 -2.352434,-0.53054 -4.697103,-1.3553 -7.097651,-1.53074 -1.107655,0.003 -2.215356,0.0111 -3.322987,0 -2.457177,-0.0474 -4.910891,-0.2022 -7.352289,-0.49086 -3.233417,-0.41412 -6.426184,-1.08331 -9.571654,-1.93495 -1.937179,-0.74014 -3.653409,-1.84658 -5.336508,-3.04847 -1.952948,-1.41039 -4.472919,0.0153 -5.513541,2.16677 -0.268094,1.12253 -0.02103,2.30479 -0.09927,3.45009 -0.0045,1.02944 0.101904,2.17673 -0.326348,3.13344 -2.16322,2.01041 5.734891,-3.0806 1.205121,-0.75983 -1.185457,0.0188 -2.370944,0.0341 -3.556407,0.0523 -1.524627,-0.003 -3.054003,-0.0645 -4.51658,-0.54792 -3.311393,-1.08107 -6.123274,-2.92762 -8.659797,-5.32297 -3.320126,-3.24845 -6.443566,-6.59977 -7.823036,-11.16206 -0.712328,-2.95064 -0.379241,-5.69144 1.299824,-8.2906 0.962704,-1.22972 1.079076,-1.5067 2.330154,-2.54336 0.528218,-0.43768 1.28242,-0.64264 1.661482,-1.21439 0.279559,-0.42166 -1.822776,0.85642 -1.335037,0.72201 1.646813,-0.45384 3.032541,-1.68594 4.834818,-1.69888 5.320433,-1.21567 10.654488,-2.05714 16.132117,-1.45896 2.984151,0.21876 5.919862,0.75972 8.904018,0.96049 5.152951,-0.22146 10.299999,-0.64277 15.398371,-1.44286 5.449205,-0.89348 10.955504,-1.67481 16.25872,-3.24727 2.345344,-0.67908 4.603459,-1.67664 6.756598,-2.82425 0.67776,-0.29191 2.35511,-1.4016 2.936606,-0.52892 0.04855,0.84325 0.179144,1.55714 1.08178,1.84431 2.356975,-0.19725 4.707813,-0.53817 7.002878,-1.11721 4.85526,-1.3859 9.45378,-3.3205 13.67467,-6.15948 1.60859,-0.94419 3.80121,-1.91895 4.54388,-3.74709 0.16856,-1.04819 0.60459,-1.90837 1.24616,-2.75615 1.07143,-1.78572 1.85532,-3.71323 2.74231,-5.59436 0.58405,-1.78681 0.76195,-3.17838 -1.62706,-3.04889 -2.31739,0.005 -4.64135,0.0123 -6.95022,-0.21041 -1.60283,-0.26169 -3.17861,-0.71904 -4.30901,-1.96167 -1.31639,-1.29972 -2.39799,-2.77192 -3.50371,-4.25014 -1.07961,-1.51363 -2.432613,-3.06981 -2.794677,-4.92028 -0.0078,-1.86816 -0.0149,-3.73637 -0.01548,-5.60455 0.01265,-1.48595 -0.0245,-3.00061 0.32366,-4.45466 0.452342,-1.28653 1.313917,-2.24067 2.202347,-3.25466 0.95234,-1.37401 2.14398,-2.6387 2.46575,-4.34074 0.24056,-1.66552 -0.0854,-3.30982 -0.82497,-4.82361 -1.99468,-4.22003 -4.668447,-8.05129 -7.002456,-12.08401 -3.866928,-6.6028 -7.875812,-13.28366 -9.633908,-20.8125 -1.11453,-6.70921 -1.470204,-13.89072 2.241384,-19.91609 -0.552003,0.14434 -1.868342,0.96259 -1.656014,0.43301 0.275267,-0.68656 1.240986,-0.82238 1.925002,-1.10391 3.218696,-1.32477 6.930829,-1.03484 10.311609,-1.02155 5.848873,0.23296 11.890783,0.40492 17.380583,2.64457 3.95191,2.17141 5.80603,3.65927 4.14078,8.28771 -1.33592,2.9133 -3.03891,5.40072 -5.43665,7.56973 -0.76381,0.69094 -1.64791,1.24213 -2.4016,1.94409 -0.0551,0.0513 0.13211,0.0721 0.19816,0.10811 -1.13057,0.58251 -2.21614,1.26223 -3.39173,1.74753 -7.00124,2.89026 -14.855165,2.44041 -22.114914,0.99313 -8.768958,-2.08951 -17.853866,-4.60451 -23.631204,-12.04103 -4.256395,-5.75868 -5.535372,-9.89868 -5.131216,-17.09063 0.85257,-7.04348 2.569134,-13.73264 7.26906,-19.28746 6.264219,-7.251745 -0.984803,0.89316 6.142463,-6.307156 0.274979,-0.2778 0.330615,-0.757116 0.658053,-0.970585 4.012311,-2.615747 8.789588,-4.032141 13.247608,-5.619424 11.803229,-3.19188 23.82035,-5.415605 36.08045,-5.739699 10.40098,-0.468918 20.84789,-0.556665 31.18266,-1.916544 4.13094,-0.736028 8.59249,-1.322329 12.46635,-3.049915 4.05167,-1.806879 7.98455,-4.00399 11.49498,-6.723872 3.33191,-3.108034 6.23508,-6.405126 5.65397,-11.272277 -0.22643,-3.427722 -0.68081,-6.834272 -1.45714,-10.184272 -0.19022,-0.859232 -0.33316,-1.730854 -0.57934,-2.575759 -0.0796,-0.273235 -0.0204,-0.864523 -0.2976,-0.800243 -3.86269,0.895618 -3.58277,0.967616 -3.9315,3.395041 -0.82885,5.640679 -1.73061,11.280912 -2.09754,16.975545 -0.70516,8.584472 -1.20606,17.20329 -0.41286,25.805246 0.4605,4.943446 1.29916,9.825794 1.74898,14.765894 -0.006,2.04491 0.0855,4.1348 -0.34401,6.14446 -0.63832,1.537 -2.08499,2.57072 -2.9396,3.98582 -2.0616,2.95349 -4.01145,5.98648 -5.48729,9.28388 -1.11419,2.54016 -2.18851,5.09268 -3.23863,7.65814 -1.59483,3.55105 -2.68923,7.29564 -3.99157,10.95733 -0.76017,2.01858 -1.44488,4.09637 -2.35287,6.05611 -0.15852,0.34212 -0.90003,1.06278 -0.52818,1.0003 2.01835,-0.33913 3.80199,-2.38107 2.53435,-1 -2.12825,-0.92989 -3.26507,-3.46584 -5.00973,-4.8835 -3.0552,-3.47142 -6.423,-6.6641 -9.32338,-10.27558 -3.07055,-3.1594 -6.31275,-6.15026 -10.21894,-8.2619 -3.75044,-2.00641 -7.53173,-3.80315 -11.88446,-2.7671 -3.32909,0.64653 -6.67166,1.36776 -9.8711,2.49943 -1.89193,0.80398 -3.93215,1.6531 -6.00882,1.67276 -1.82667,-0.0642 -3.65853,-0.18973 -5.40341,-0.78454 -1.968408,-0.78157 -3.673561,-2.0826 -5.712977,-2.71029 -3.190248,-0.5301 -6.16626,0.40607 -9.120431,1.62395 -8.454736,3.91143 -15.964889,9.43499 -23.017707,15.47019 -8.989539,7.53046 -17.327859,15.75065 -25.982903,23.6545 -2.205689,1.97709 -3.527116,3.22548 -5.783514,5.02814 -0.718362,0.57391 -1.677826,0.90498 -2.203434,1.6594 -0.345244,0.49554 1.088382,-0.52528 1.616906,-0.81754 0.637746,-0.35265 -2.167255,1.10693 -1.981679,0.92343 -1.025581,-2.5e-4 -2.051511,0.0175 -3.076706,-0.02 -1.373766,-0.0707 -2.768469,-0.19628 -4.069491,-0.67175 -0.851023,-0.4281 -1.827698,-0.84669 -1.743347,-1.94563 0.0026,-2.05018 0.0258,-4.10039 0.138004,-6.14814 0.277046,-4.96043 0.718596,-9.91711 1.573528,-14.81514 0.287187,-1.55238 0.498897,-3.1482 0.991205,-4.65424 0.07342,-0.2246 0.129189,-0.45854 0.241303,-0.66653 0.08607,-0.15969 0.511336,-0.49314 0.34489,-0.42099 -0.989899,0.42907 -1.907881,1.00797 -2.861822,1.51195 2.509377,-1.10577 5.502259,-0.97929 8.019153,-2.15244 5.368377,-1.53849 10.771629,-2.86086 15.519445,-5.9774 2.47133,-1.5626 4.528899,-3.41395 5.067972,-6.43348 0.742225,-5.69004 -0.0722,-11.26991 -1.855555,-16.72485 C 45.279159,107.00602 42.348808,99.578754 37.41312,93.110835 34.1137,88.640033 30.403474,84.443521 27.384573,79.785161 c -1.134763,0.441214 -2.245315,0.95064 -3.404291,1.323647 -0.193453,0.06226 0.280944,-0.323593 0.475849,-0.381148 2.077161,-0.613383 4.487415,0.559925 6.582153,0.358505 5.11874,0.455605 10.228839,0.787797 15.373066,0.667451 4.328766,0.04245 5.610707,0.548106 9.65476,-2.369661 2.180383,-1.756976 3.381557,-4.461004 4.854715,-6.774145 3.509791,-6.330421 6.461575,-12.938093 8.791988,-19.797035 1.89236,-5.290992 3.204427,-10.96545 7.326865,-15.063293 0.612701,-0.596408 1.479693,-1.01292 1.8381,-1.789223 0.168868,-0.365763 -1.473954,0.584189 -1.16332,0.327665 2.867311,-2.367836 7.558215,-2.979177 11.031572,-3.818297 6.079879,-0.545071 12.10901,-0.597308 18.1442,0.501724 0.5381,0.05033 5.02706,0.418867 5.42858,0.990401 0.0623,0.08873 -0.0157,0.216308 -0.0235,0.324459 -1.26841,3.33375 -4.36837,5.779047 -6.0634,8.862639 -5.35767,7.775056 -11.036926,15.319452 -16.619901,22.932808 -2.816249,3.819514 -6.731826,7.968633 -6.967374,12.954701 0.672024,4.223472 2.793011,7.956857 4.811843,11.677718 5.843465,10.103013 12.535151,19.648813 20.397912,28.307223 10.74798,11.87323 22.30447,22.97278 34.81121,32.99635 4.29444,3.34424 4.2197,3.34934 8.376,6.36317 1.61101,1.16818 3.29358,2.23915 4.86445,3.46076 1.05164,0.81783 1.11961,0.94957 1.86544,1.78324 -0.26896,2.66694 -2.46962,4.93131 -3.09746,7.50121 -3.56095,8.95348 -6.25988,18.22855 -8.01117,27.70939 -0.32001,2.05448 -0.72358,4.09768 -0.96002,6.16345 -1.02505,8.95589 -0.53625,17.99847 0.25789,26.9462 0.52792,5.20711 1.19609,10.44183 0.56857,15.67469 -0.28898,1.58084 -0.86049,2.80306 -2.27886,3.6754 -0.18501,0.15173 -0.77135,0.55748 -0.55505,0.45519 0.90804,-0.42939 3.50175,-1.96793 2.64507,-1.44353 -1.35676,0.83051 -2.76732,1.56979 -4.14646,2.36258 -0.82861,0.47633 1.66905,-0.93201 2.49486,-1.41316 0.32708,-0.19057 -0.65576,0.38019 -0.99833,0.54123 -0.35982,0.16915 -0.73702,0.29852 -1.10552,0.44778 -3.89078,1.37565 -7.95562,2.14021 -12.01989,2.80294 -7.15603,1.25161 -14.3635,2.21937 -21.47399,3.7312 -2.71508,0.45466 -5.40994,1.06914 -8.13618,1.44893 -0.88916,0.12386 -1.859888,-0.0294 -2.669148,0.35928 -1.286291,0.61772 -2.494508,1.38633 -3.741759,2.0795 0.383892,0.82676 3.074829,0.89825 3.850185,1.56664 2.259062,1.17288 4.442252,2.69202 7.016722,3.04603 4.12977,-0.23577 7.30452,-3.1584 9.22111,-6.53341 1.72233,-2.92821 3.26246,-5.95674 5.02825,-8.85959 1.10237,-2.00806 2.33996,-4.03477 2.67828,-6.34005 -0.0933,-1.85925 -1.46422,-1.10305 -2.71327,-0.6608 -4.49615,1.82366 -8.52724,4.63255 -12.70476,7.06671 -4.04032,2.66388 -7.25466,5.39048 -8.230747,5.30276 -3.197556,1.04107 -6.458818,1.06332 -9.790904,0.70095 -4.730289,-0.50467 -9.351436,-1.45203 -13.392933,-4.12444 -5.58355,-3.57434 -9.762461,-8.65558 -13.404125,-14.15412 -3.639349,-6.15279 -6.306253,-12.78396 -8.542594,-19.56761 -1.516496,-4.9439 -3.122181,-10.24603 -2.38288,-15.4635 0.705189,-1.76316 0.710811,-1.25197 -2.646624,0.66375 -0.164894,0.0941 0.370324,-0.10706 0.560131,-0.10309 1.001458,0.021 1.991161,0.46868 2.980555,0.56582 4.822095,0.95628 9.675503,1.80297 14.618925,1.51501 7.239685,-0.61075 13.737412,-1.63288 19.208421,-7.04661 0.399889,-0.65942 0.88233,-1.27538 1.199669,-1.97826 1.742223,-3.8589 0.755465,-8.13419 -0.157123,-12.05004 -1.750393,-6.11871 -4.031633,-12.12013 -7.689805,-17.38073 -3.050603,-4.31423 -6.382702,-8.45502 -10.365851,-11.95396 -0.37071,-0.29965 -0.637106,-0.93854 -1.112128,-0.89894 -5.070293,0.42269 -4.738201,1.04978 -2.856939,3.02893 3.734821,3.09466 8.363024,5.02948 12.412225,7.65161 7.124126,4.05345 14.499865,7.71319 22.238864,10.44912 1.478323,0.40118 7.564703,2.16695 9.132183,1.35777 1.27772,-0.6596 2.46162,-1.48696 3.69243,-2.23044 0.33132,-1.17755 -0.085,-2.49602 0.0494,-3.70158 -0.0377,-3.1119 -0.0475,-6.22624 0.0992,-9.33574 0.31218,-5.11086 0.9417,-10.20266 2.61584,-15.07213 2.21444,-6.63478 4.8381,-12.60145 9.69612,-17.79823 5.39361,-5.83145 11.27206,-11.09106 17.63768,-15.856 5.35494,-4.37327 10.77222,-8.66892 16.19851,-12.95214 z" />
    <path
       style="fill:#000000;fill-opacity:0.720721;stroke-width:0.264583"
       id="path2"
       d="m 83.331613,43.942119 c 1.710785,-0.174279 3.323452,0.294692 4.958336,0.715007 0.968409,0.218792 1.948275,0.383836 2.931967,0.516276 0.723191,-0.08018 0.946867,0.304305 1.454928,0.699265 1.139608,0.670777 2.57678,0.527232 3.853659,0.557725 1.600562,0.03202 3.201522,0.03407 4.802337,0.0358 0,0 3.17627,-2.308804 3.17627,-2.308804 v 0 c -1.60706,0.009 -3.21428,0.01574 -4.821247,-0.0096 -1.210323,-0.02808 -2.561273,0.104304 -3.684839,-0.397587 -0.559445,-0.322466 -0.775941,-1.030359 -1.556194,-0.86375 -0.985198,-0.09466 -1.964156,-0.251352 -2.933314,-0.451184 -1.652839,-0.413456 -3.276296,-0.962004 -5.005255,-0.8011 z" />
    <path
       style="fill:#000000;fill-opacity:0.720721;stroke-width:0.264583"
       id="path3"
       d="m 74.495035,49.086931 c 1.569458,0.343395 2.956885,1.206018 4.417062,1.85226 0.732338,0.351682 1.537938,0.498512 2.342171,0.557067 1.000086,-0.07153 1.870718,0.104159 2.781898,0.507879 0.587918,0.566607 0.976612,1.208227 1.683258,1.65554 0.749086,0.299371 1.460463,0.693079 2.187027,1.051658 0.786485,0.316822 1.615107,0.476961 2.456635,0.540369 0.620046,0.04107 1.241822,0.03177 1.862831,0.03177 0.418097,-0.0061 0.83625,-0.006 1.254382,-0.0056 0,0 3.195637,-2.323515 3.195637,-2.323515 v 0 c -0.418335,0.0034 -0.836686,0.0066 -1.25504,0.0047 -0.618146,0.0078 -1.236612,0.01326 -1.854618,-0.0053 -0.807966,-0.03639 -1.60337,-0.145994 -2.373077,-0.410649 -0.728316,-0.347382 -1.410978,-0.788575 -2.161064,-1.029465 -0.758669,-0.417028 -1.120722,-1.078754 -1.718424,-1.684046 -0.937855,-0.434139 -1.806593,-0.760029 -2.85755,-0.635741 -0.773911,-0.01878 -1.563582,-0.114059 -2.276403,-0.431292 -1.49133,-0.626335 -2.887861,-1.494086 -4.453565,-1.90442 z" />
    <path
       style="fill:#000000;fill-opacity:0.720721;stroke-width:0.264583"
       id="path4"
       d="m 73.046459,60.509147 c 1.100297,1.012311 2.149809,2.066729 3.242654,3.083583 0.825545,0.667065 1.677845,1.293151 2.705132,1.587934 0.562507,0.159351 1.140423,0.175916 1.720154,0.180295 0.595127,-0.0063 1.190353,-0.0085 1.785493,-0.01569 0.418767,-0.0024 0.837518,-5.29e-4 1.256282,-0.0035 0,0 3.190988,-2.318845 3.190988,-2.318845 v 0 c -0.419007,-0.0021 -0.837962,0.0011 -1.256972,0.0021 -0.593714,-0.0016 -1.187495,0.0082 -1.781148,0.01381 -0.558946,0.0065 -1.120193,0.02373 -1.670704,-0.09444 -0.998691,-0.217525 -1.813856,-0.775877 -2.609463,-1.411168 -1.088869,-1.045787 -2.223903,-2.045756 -3.272124,-3.143698 z" />
    <path
       style="fill:#000000;fill-opacity:0.720721;stroke-width:0.264583"
       id="path5"
       d="m 38.02653,142.10313 c 1.477986,-0.008 2.956055,-0.006 4.434049,8e-4 2.123014,0.0746 2.838953,-0.77114 5.102561,-2.22011 0.285051,-0.18247 0.375814,-0.56703 0.608446,-0.81286 0.812488,-0.69847 1.444064,-1.6964 2.424496,-2.16081 -7.201717,3.99663 0.906468,0.42944 2.163705,-2.1851 0.65514,-0.93048 1.343051,-1.94076 1.648629,-3.04984 0.480732,-0.64726 1.022175,-1.09187 1.283314,-1.85895 0,0 -3.580675,1.65687 -3.580675,1.65687 v 0 c -0.321747,0.69326 -1.008814,1.13649 -1.264092,1.87821 -0.405329,1.06763 -1.0365,2.03478 -1.670428,2.9791 -0.316111,0.5082 -0.629979,0.90117 -1.100757,1.27814 -0.133985,0.10728 -0.569518,0.38129 -0.417846,0.30093 0.335217,-0.1776 8.963655,-4.9972 -0.734393,0.41671 -0.883698,0.6467 -1.599166,1.50159 -2.376218,2.26809 -0.209746,0.24414 -0.947251,0.85171 -0.661667,0.70326 5.472713,-2.8449 3.360732,-1.44745 1.7541,-1.50345 -1.478836,0.007 -2.957748,0.009 -4.436578,7.9e-4 z" />
    <path
       style="fill:#000000;fill-opacity:0.720721;stroke-width:0.264583"
       id="path6"
       d="m 82.035945,204.89007 c -1.110829,0.72591 -3.686738,2.48073 1.38211,-0.72612 1.013568,-0.64124 -1.220886,0.55426 -1.804869,0.74491 -1.149929,0.35005 -2.360599,0.2384 -3.528467,0.45737 -1.060815,0.38779 -2.100125,0.77504 -3.217212,0.96606 -1.059495,0.1577 -2.126983,0.0253 -3.125959,0.45231 -0.894096,0.48653 -1.871792,0.72355 -2.870486,0.86887 -0.803569,0.0932 -1.612715,0.0995 -2.420443,0.10555 -0.779227,-0.003 -1.558454,-0.005 -2.337675,-0.009 -0.141187,2.7e-4 -0.282377,5.3e-4 -0.423564,8e-4 0,0 -3.187279,2.31492 -3.187279,2.31492 v 0 c 0.139522,8e-4 0.279045,0.002 0.418568,0.002 0.782151,-5.3e-4 1.564285,0.005 2.346439,0.005 0.817038,0.005 1.634722,0.009 2.44911,-0.0698 1.019916,-0.0926 2.027777,-0.3049 2.953295,-0.75704 0.957929,-0.57283 1.961361,-0.47193 3.054358,-0.55345 1.132083,-0.16304 2.208458,-0.44494 3.243823,-0.94418 1.146429,-0.35562 2.37081,-0.12063 3.536204,-0.44347 2.65086,-0.67217 4.917033,-2.38125 7.192537,-3.84663 z" />
    <path
       style="fill:#000000;fill-opacity:0.720721;stroke-width:0.264583"
       id="path7"
       d="m 128.41934,159.92864 c 1.62479,1.02398 3.09512,2.26483 4.5317,3.53298 1.29839,1.06047 2.16702,2.52091 3.29771,3.73164 0.44219,0.65245 1.03499,1.08784 1.68085,1.51413 0,0 3.29138,-2.11772 3.29138,-2.11772 v 0 c -0.64159,-0.39052 -1.20483,-0.7935 -1.62579,-1.43623 -1.16476,-1.19383 -2.01367,-2.69322 -3.33429,-3.74707 -1.43817,-1.28598 -2.92519,-2.52429 -4.53127,-3.59728 z" />
    <path
       style="fill:#000000;fill-opacity:0.720721;stroke-width:0.264583"
       id="path8"
       d="m 113.66783,202.62556 c 3.46868,0.49759 6.87758,1.31724 10.30201,2.04989 2.17083,0.4878 4.37694,0.77206 6.58109,1.05411 0,0 3.11681,-2.20595 3.11681,-2.20595 v 0 c -2.2009,-0.26715 -4.40334,-0.53904 -6.57057,-1.02065 -3.40065,-0.73446 -6.7766,-1.5894 -10.21727,-2.11559 z" />
    <path
       style="fill:#000000;fill-opacity:0.720721;stroke-width:0.264583"
       id="path9"
       d="m 128.12931,235.57603 c -5.98092,3.29662 0.42516,0.17488 1.84467,-0.56278 1.07198,-0.53206 2.20757,-0.8528 3.3906,-0.99566 0.55054,-0.0618 1.10498,-0.0614 1.65811,-0.0568 0,0 3.19807,-2.3194 3.19807,-2.3194 v 0 c -0.56476,-0.005 -1.13139,-0.0165 -1.69483,0.0264 -1.21632,0.11946 -2.38541,0.37838 -3.50223,0.8981 -2.86518,1.49047 -5.83673,2.64402 -8.55488,4.44244 z" />
    <path
       style="fill:#000000;fill-opacity:0.720721;stroke-width:0.264583"
       id="path10"
       d="m 18.932052,255.5727 c 1.321648,1.02621 2.809501,1.62075 4.426938,1.98873 1.089909,0.23553 2.20185,0.30591 3.31314,0.34044 2.449491,0.12748 3.789804,-1.27218 6.07315,-2.60048 0.978583,-0.69191 1.879936,-1.26787 2.59003,-2.25432 0.432925,-0.59031 0.501936,-1.26708 0.235376,-1.9323 -0.536247,-1.26062 -0.772686,-2.61393 -0.964689,-3.96192 -0.315788,-0.82284 -0.808763,-1.3886 -1.665142,-1.59881 -0.652725,-0.11797 -1.320406,-0.0857 -1.980351,-0.0738 -0.763402,0.0109 -1.526802,0.0183 -2.290286,0.0182 -0.800801,0.005 -1.601618,0.004 -2.402431,0.007 -0.925036,0.18099 -1.770061,0.64043 -2.65195,0.97083 -1.924902,0.43731 -3.97278,1.30619 -5.070255,2.99048 -0.161411,0.23352 -0.132834,0.53693 -0.159173,0.80888 0,0 3.541305,-1.74523 3.541305,-1.74523 v 0 c 0.04161,-0.23572 0.07852,-0.44743 0.245392,-0.63124 0.182703,-0.21936 0.884309,-0.71199 0.63258,-0.57734 -4.659431,2.49235 -3.899718,1.77119 -2.296923,1.58517 0.878473,-0.32321 1.743895,-0.66506 2.57693,-1.08962 0.797235,0.003 1.594453,0.002 2.39169,0.003 0.766125,-0.007 1.532278,-0.007 2.29834,-0.0198 0.643194,-0.005 1.288444,-0.0405 1.930373,0.0121 0.74214,0.096 1.16069,0.43668 1.428332,1.17531 0.219673,1.37012 0.474236,2.7417 0.989811,4.03692 0.181013,0.58922 -0.03024,1.10964 -0.407421,1.5785 -0.727837,0.90239 -1.703774,1.43962 -2.625439,2.12297 5.345327,-2.96303 2.463064,-0.98895 0.775904,-1.13714 -1.103826,-0.005 -2.2093,-0.0546 -3.296777,-0.25933 -1.587279,-0.31649 -3.054784,-0.84366 -4.328161,-1.87669 z" />
  </g>
</svg>
